<?xml version="1.0" encoding="UTF-8"?>
<svg version="1.1" xmlns="http://www.w3.org/2000/svg" width="256" height="256">
<path d="M0 0 C1.90625 0.46875 1.90625 0.46875 4.40625 2.34375 C6.51808532 6.74340692 6.24153878 10.67225768 5.90625 15.46875 C6.86402344 15.55511719 7.82179687 15.64148437 8.80859375 15.73046875 C25.59958051 17.42407184 40.19468073 22.23369061 54.90625 30.46875 C56.40285156 31.30212891 56.40285156 31.30212891 57.9296875 32.15234375 C65.47648372 36.66095983 71.61559361 42.3989734 77.90625 48.46875 C78.6384375 49.13777344 79.370625 49.80679688 80.125 50.49609375 C99.29123394 68.48345219 107.55568597 94.16245745 110.90625 119.46875 C111.57011719 119.49453125 112.23398438 119.5203125 112.91796875 119.546875 C117.0830146 119.81441079 120.26527815 120.14826408 124.03125 122.03125 C126.3286137 125.0178228 126.65168329 126.8549439 126.375 130.5625 C125.90625 132.46875 125.90625 132.46875 124.03125 134.96875 C119.63159308 137.08058532 115.70274232 136.80403878 110.90625 136.46875 C110.75929687 137.83193359 110.75929687 137.83193359 110.609375 139.22265625 C106.86977732 170.65461948 92.82611777 198.18285508 67.65625 218.1015625 C49.11119127 232.16765363 28.78276586 238.61208863 5.90625 241.46875 C5.93235352 242.49718018 5.93235352 242.49718018 5.95898438 243.54638672 C5.97251953 244.44631348 5.98605469 245.34624023 6 246.2734375 C6.01740234 247.16530762 6.03480469 248.05717773 6.05273438 248.97607422 C5.90625 251.46875 5.90625 251.46875 4.40625 254.59375 C1.37769689 256.86516483 -0.46160992 257.2155515 -4.1875 256.9375 C-6.09375 256.46875 -6.09375 256.46875 -8.59375 254.59375 C-10.15878691 251.33325644 -10.25643055 249.80612803 -10.1875 246.2734375 C-10.16719727 244.92354736 -10.16719727 244.92354736 -10.14648438 243.54638672 C-10.12908203 242.8607666 -10.11167969 242.17514648 -10.09375 241.46875 C-11.32867187 241.32179687 -12.56359375 241.17484375 -13.8359375 241.0234375 C-45.54343475 236.94923696 -72.82872189 222.54258128 -92.7578125 197.1796875 C-105.06474963 180.1360598 -115.09375 157.8642976 -115.09375 136.46875 C-115.75761719 136.51515625 -116.42148438 136.5615625 -117.10546875 136.609375 C-121.35893048 136.78323913 -124.33142032 136.83466825 -128.21875 134.96875 C-130.49016483 131.94019689 -130.8405515 130.10089008 -130.5625 126.375 C-130.09375 124.46875 -130.09375 124.46875 -128.21875 121.96875 C-123.81909308 119.85691468 -119.89024232 120.13346122 -115.09375 120.46875 C-115.00738281 119.51097656 -114.92101562 118.55320312 -114.83203125 117.56640625 C-113.13842816 100.77541949 -108.32880939 86.18031927 -100.09375 71.46875 C-99.53816406 70.47101563 -98.98257813 69.47328125 -98.41015625 68.4453125 C-93.90154017 60.89851628 -88.1635266 54.75940639 -82.09375 48.46875 C-81.42472656 47.7365625 -80.75570312 47.004375 -80.06640625 46.25 C-62.42819743 27.45579864 -35.33516735 17.26159833 -10.09375 15.46875 C-10.14015625 14.80488281 -10.1865625 14.14101562 -10.234375 13.45703125 C-10.40823913 9.20356952 -10.45966825 6.23107968 -8.59375 2.34375 C-5.56519689 0.07233517 -3.72589008 -0.2780515 0 0 Z M-71.09375 59.46875 C-89.95378809 78.72043067 -99.66543613 103.37161408 -99.4453125 130.27026367 C-98.7841016 156.85874762 -87.95599125 180.78516947 -69.09375 199.46875 C-53.65793264 213.67986928 -31.4962616 225.46875 -10.09375 225.46875 C-10.06796875 224.79328125 -10.0421875 224.1178125 -10.015625 223.421875 C-9.55561743 216.18721044 -9.55561743 216.18721044 -7.40625 212.84375 C-4.34033776 211.02077515 -2.60461845 210.88360526 0.90625 211.46875 C3.21875 212.84375 3.21875 212.84375 4.90625 215.46875 C5.52681219 218.79579769 5.77727591 222.08962887 5.90625 225.46875 C26.54665035 223.33792285 46.50370855 215.68050673 61.90625 201.46875 C62.80730469 200.64761719 63.70835937 199.82648438 64.63671875 198.98046875 C82.9937924 181.48427855 94.45604938 157.54860911 95.18945312 132.08227539 C95.55027138 103.74300828 84.87286267 78.55650063 65.21875 58.28125 C49.4789055 42.66924699 28.02401447 33.02087382 5.90625 31.46875 C5.88046875 32.14421875 5.8546875 32.8196875 5.828125 33.515625 C5.36811743 40.75028956 5.36811743 40.75028956 3.21875 44.09375 C0.15283776 45.91672485 -1.58288155 46.05389474 -5.09375 45.46875 C-7.40625 44.09375 -7.40625 44.09375 -9.09375 41.46875 C-9.71431219 38.14170231 -9.96477591 34.84787113 -10.09375 31.46875 C-32.52585021 31.46875 -55.48521754 44.17774649 -71.09375 59.46875 Z " fill="#258FFF" transform="translate(130.09375,-0.46875)"/>
<path d="M0 0 C28.09979244 22.23897859 28.09979244 22.23897859 29.71484375 34.02734375 C28.00397401 46.09936853 11.27040519 59.35552569 2.28027344 66.60205078 C-1.86847108 69.70153055 -6.20180919 72.42182765 -10.703125 74.9765625 C-11.2919043 75.31365234 -11.88068359 75.65074219 -12.48730469 75.99804688 C-33.30462045 87.68697542 -55.7217321 89.89021826 -78.54296875 83.65234375 C-94.3159805 78.84726191 -108.52213375 68.94966757 -119.703125 56.9765625 C-120.87875 55.831875 -120.87875 55.831875 -122.078125 54.6640625 C-136.26701176 40.1373451 -136.26701176 40.1373451 -137.11328125 34.00390625 C-135.9823894 25.65684737 -127.6434257 18.53266464 -121.703125 12.9765625 C-120.94 12.1928125 -120.176875 11.4090625 -119.390625 10.6015625 C-118.50375 9.7353125 -117.616875 8.8690625 -116.703125 7.9765625 C-116.04183594 7.31914063 -115.38054687 6.66171875 -114.69921875 5.984375 C-82.26835825 -24.89707042 -35.43735695 -26.52680766 0 0 Z M-102.703125 16.9765625 C-103.61707031 17.67265625 -104.53101563 18.36875 -105.47265625 19.0859375 C-106.20871094 19.70984375 -106.94476563 20.33375 -107.703125 20.9765625 C-107.703125 21.6365625 -107.703125 22.2965625 -107.703125 22.9765625 C-108.57710937 23.34394531 -108.57710937 23.34394531 -109.46875 23.71875 C-112.06614736 25.18092124 -113.54288331 26.82396664 -115.453125 29.1015625 C-116.06671875 29.82601562 -116.6803125 30.55046875 -117.3125 31.296875 C-118.00085938 32.12832031 -118.00085938 32.12832031 -118.703125 32.9765625 C-115.19040901 39.12381549 -111.12316284 43.66699738 -105.7578125 48.2265625 C-104.51345185 49.28639819 -103.28432813 50.36501177 -102.0859375 51.4765625 C-93.06767588 59.73208558 -82.25988055 65.22555249 -70.703125 68.9765625 C-69.95933594 69.22277344 -69.21554688 69.46898437 -68.44921875 69.72265625 C-51.93673057 74.26594047 -34.77444304 69.74287814 -20.05859375 61.9609375 C-11.23488162 56.74272358 -3.70814793 50.42041517 3.296875 42.9765625 C4.25153894 42.01457377 5.20936598 41.05570187 6.171875 40.1015625 C6.873125 39.4003125 7.574375 38.6990625 8.296875 37.9765625 C9.286875 36.9865625 9.286875 36.9865625 10.296875 35.9765625 C10.0011543 32.10419846 8.91280909 30.07738359 6.2265625 27.33984375 C5.58517334 26.68483887 4.94378418 26.02983398 4.28295898 25.35498047 C3.23797241 24.33235107 3.23797241 24.33235107 2.171875 23.2890625 C1.45265869 22.58152832 0.73344238 21.87399414 -0.00756836 21.14501953 C-10.85404748 10.73420396 -22.46822225 3.7270668 -36.703125 -1.0234375 C-37.48816406 -1.28898437 -38.27320313 -1.55453125 -39.08203125 -1.828125 C-61.72548196 -8.10126315 -85.85306878 2.15100472 -102.703125 16.9765625 Z " fill="#712FFF" transform="translate(181.703125,94.0234375)"/>
<path d="M0 0 C2.56612201 2.00521711 3.83377643 3.20535466 4.50793457 6.42822266 C4.51111694 7.3310498 4.51429932 8.23387695 4.51757812 9.1640625 C4.53018677 10.19192871 4.54279541 11.21979492 4.55578613 12.27880859 C4.54768921 13.38305176 4.53959229 14.48729492 4.53125 15.625 C4.5350769 16.76404785 4.53890381 17.9030957 4.54284668 19.07666016 C4.54556774 21.48405847 4.5381931 23.89148626 4.52148438 26.29882812 C4.50007925 29.98634682 4.52128132 33.67191699 4.546875 37.359375 C4.54423176 39.69792097 4.53910687 42.03646573 4.53125 44.375 C4.53934692 45.47924316 4.54744385 46.58348633 4.55578613 47.72119141 C4.54317749 48.74905762 4.53056885 49.77692383 4.51757812 50.8359375 C4.51280457 52.19017822 4.51280457 52.19017822 4.50793457 53.57177734 C3.82387074 56.84200029 2.65777931 58.01619148 0 60 C-2.42822266 60.50793457 -2.42822266 60.50793457 -5.1640625 60.51757812 C-6.19192871 60.53018677 -7.21979492 60.54279541 -8.27880859 60.55578613 C-9.93517334 60.54364075 -9.93517334 60.54364075 -11.625 60.53125 C-13.33357178 60.53699036 -13.33357178 60.53699036 -15.07666016 60.54284668 C-17.48405847 60.54556774 -19.89148626 60.5381931 -22.29882812 60.52148438 C-25.98634682 60.50007925 -29.67191699 60.52128132 -33.359375 60.546875 C-35.69792097 60.54423176 -38.03646573 60.53910687 -40.375 60.53125 C-41.47924316 60.53934692 -42.58348633 60.54744385 -43.72119141 60.55578613 C-44.74905762 60.54317749 -45.77692383 60.53056885 -46.8359375 60.51757812 C-48.19017822 60.51280457 -48.19017822 60.51280457 -49.57177734 60.50793457 C-52.79464534 59.83377643 -53.99478289 58.56612201 -56 56 C-56.53927583 52.22506921 -56.68048201 50.03243962 -54.55371094 46.80566406 C-50.70908358 44.08722583 -47.23642027 44.50108576 -42.640625 44.609375 C-41.73624695 44.61503479 -40.8318689 44.62069458 -39.90008545 44.62652588 C-37.01618147 44.64888752 -34.13352739 44.69908314 -31.25 44.75 C-29.29298671 44.77006529 -27.33595392 44.78831601 -25.37890625 44.8046875 C-20.58545711 44.84875161 -15.79294035 44.91777748 -11 45 C-11.02094727 43.77893555 -11.04189453 42.55787109 -11.06347656 41.29980469 C-11.13590159 36.76753476 -11.18180888 32.23531593 -11.21972656 27.70263672 C-11.23983632 25.74128619 -11.26712818 23.77999556 -11.30175781 21.81884766 C-11.35030421 18.99887305 -11.37297486 16.17969135 -11.390625 13.359375 C-11.41127014 12.48319519 -11.43191528 11.60701538 -11.45318604 10.70428467 C-11.45541739 4.64408678 -11.45541739 4.64408678 -9.19433594 1.44628906 C-5.96756038 -0.68048201 -3.77493079 -0.53927583 0 0 Z " fill="#00BFFF" transform="translate(252,196)"/>
<path d="M0 0 C3.5 0.5 3.5 0.5 5.69433594 1.94628906 C8.41277417 5.79091642 7.99891424 9.26357973 7.890625 13.859375 C7.88496521 14.76375305 7.87930542 15.6681311 7.87347412 16.59991455 C7.85111248 19.48381853 7.80091686 22.36647261 7.75 25.25 C7.72993471 27.20701329 7.71168399 29.16404608 7.6953125 31.12109375 C7.65124839 35.91454289 7.58222252 40.70705965 7.5 45.5 C8.72106445 45.47905273 9.94212891 45.45810547 11.20019531 45.43652344 C15.73246524 45.36409841 20.26468407 45.31819112 24.79736328 45.28027344 C26.75871381 45.26016368 28.72000444 45.23287182 30.68115234 45.19824219 C33.50112695 45.14969579 36.32030865 45.12702514 39.140625 45.109375 C40.45489471 45.07840729 40.45489471 45.07840729 41.79571533 45.04681396 C47.85591322 45.04458261 47.85591322 45.04458261 51.05371094 47.30566406 C53.18048201 50.53243962 53.03927583 52.72506921 52.5 56.5 C50.49478289 59.06612201 49.29464534 60.33377643 46.07177734 61.00793457 C45.1689502 61.01111694 44.26612305 61.01429932 43.3359375 61.01757812 C42.30807129 61.03018677 41.28020508 61.04279541 40.22119141 61.05578613 C38.56482666 61.04364075 38.56482666 61.04364075 36.875 61.03125 C35.16642822 61.03699036 35.16642822 61.03699036 33.42333984 61.04284668 C31.01594153 61.04556774 28.60851374 61.0381931 26.20117188 61.02148438 C22.51365318 61.00007925 18.82808301 61.02128132 15.140625 61.046875 C12.80207903 61.04423176 10.46353427 61.03910687 8.125 61.03125 C7.02075684 61.03934692 5.91651367 61.04744385 4.77880859 61.05578613 C3.75094238 61.04317749 2.72307617 61.03056885 1.6640625 61.01757812 C0.30982178 61.01280457 0.30982178 61.01280457 -1.07177734 61.00793457 C-4.34200029 60.32387074 -5.51619148 59.15777931 -7.5 56.5 C-8.00793457 54.07177734 -8.00793457 54.07177734 -8.01757812 51.3359375 C-8.03018677 50.30807129 -8.04279541 49.28020508 -8.05578613 48.22119141 C-8.04768921 47.11694824 -8.03959229 46.01270508 -8.03125 44.875 C-8.0350769 43.73595215 -8.03890381 42.5969043 -8.04284668 41.42333984 C-8.04556774 39.01594153 -8.0381931 36.60851374 -8.02148438 34.20117188 C-8.00007925 30.51365318 -8.02128132 26.82808301 -8.046875 23.140625 C-8.04423176 20.80207903 -8.03910687 18.46353427 -8.03125 16.125 C-8.03934692 15.02075684 -8.04744385 13.91651367 -8.05578613 12.77880859 C-8.04317749 11.75094238 -8.03056885 10.72307617 -8.01757812 9.6640625 C-8.01439575 8.76123535 -8.01121338 7.8584082 -8.00793457 6.92822266 C-7.03527884 2.2783626 -4.52938135 0.64705448 0 0 Z " fill="#00C0FF" transform="translate(7.5,195.5)"/>
<path d="M0 0 C1.54179932 -0.01891296 1.54179932 -0.01891296 3.11474609 -0.03820801 C4.77111084 -0.02606262 4.77111084 -0.02606262 6.4609375 -0.01367188 C8.16950928 -0.01941223 8.16950928 -0.01941223 9.91259766 -0.02526855 C12.31999597 -0.02798962 14.72742376 -0.02061498 17.13476562 -0.00390625 C20.82228432 0.01749887 24.50785449 -0.0037032 28.1953125 -0.02929688 C30.53385847 -0.02665364 32.87240323 -0.02152874 35.2109375 -0.01367188 C36.31518066 -0.0217688 37.41942383 -0.02986572 38.55712891 -0.03820801 C39.58499512 -0.02559937 40.61286133 -0.01299072 41.671875 0 C43.02611572 0.00477356 43.02611572 0.00477356 44.40771484 0.00964355 C47.67793779 0.69370738 48.85212898 1.85979882 50.8359375 4.51757812 C51.34387207 6.94580078 51.34387207 6.94580078 51.35351562 9.68164062 C51.36612427 10.70950684 51.37873291 11.73737305 51.39172363 12.79638672 C51.38362671 13.90062988 51.37552979 15.00487305 51.3671875 16.14257812 C51.3710144 17.28162598 51.37484131 18.42067383 51.37878418 19.59423828 C51.38150524 22.0016366 51.3741306 24.40906438 51.35742188 26.81640625 C51.33601675 30.50392495 51.35721882 34.18949512 51.3828125 37.87695312 C51.38016926 40.2154991 51.37504437 42.55404386 51.3671875 44.89257812 C51.37528442 45.99682129 51.38338135 47.10106445 51.39172363 48.23876953 C51.37911499 49.26663574 51.36650635 50.29450195 51.35351562 51.35351562 C51.34874207 52.70775635 51.34874207 52.70775635 51.34387207 54.08935547 C50.66971393 57.31222346 49.40205951 58.51236101 46.8359375 60.51757812 C43.06100671 61.05685395 40.86837712 61.19806014 37.64160156 59.07128906 C34.92316333 55.2266617 35.33702326 51.75399839 35.4453125 47.15820312 C35.45097229 46.25382507 35.45663208 45.34944702 35.46246338 44.41766357 C35.48482502 41.5337596 35.53502064 38.65110551 35.5859375 35.76757812 C35.60600279 33.81056484 35.62425351 31.85353205 35.640625 29.89648438 C35.68468911 25.10303523 35.75371498 20.31051847 35.8359375 15.51757812 C34.61487305 15.53852539 33.39380859 15.55947266 32.13574219 15.58105469 C27.60347226 15.65347971 23.07125343 15.69938701 18.53857422 15.73730469 C16.57722369 15.75741445 14.61593306 15.78470631 12.65478516 15.81933594 C9.83481055 15.86788234 7.01562885 15.89055299 4.1953125 15.90820312 C2.88104279 15.93917084 2.88104279 15.93917084 1.54022217 15.97076416 C-4.51997572 15.97299551 -4.51997572 15.97299551 -7.71777344 13.71191406 C-9.84454451 10.48513851 -9.70333833 8.29250892 -9.1640625 4.51757812 C-6.35257752 0.91965676 -4.52442629 0.01594814 0 0 Z " fill="#00BFFF" transform="translate(205.1640625,-0.517578125)"/>
<path d="M0 0 C1.54179932 -0.01891296 1.54179932 -0.01891296 3.11474609 -0.03820801 C4.77111084 -0.02606262 4.77111084 -0.02606262 6.4609375 -0.01367188 C8.16950928 -0.01941223 8.16950928 -0.01941223 9.91259766 -0.02526855 C12.31999597 -0.02798962 14.72742376 -0.02061498 17.13476562 -0.00390625 C20.82228432 0.01749887 24.50785449 -0.0037032 28.1953125 -0.02929688 C30.53385847 -0.02665364 32.87240323 -0.02152874 35.2109375 -0.01367188 C36.31518066 -0.0217688 37.41942383 -0.02986572 38.55712891 -0.03820801 C39.58499512 -0.02559937 40.61286133 -0.01299072 41.671875 0 C43.02611572 0.00477356 43.02611572 0.00477356 44.40771484 0.00964355 C47.63058284 0.68380169 48.83072039 1.95145611 50.8359375 4.51757812 C51.37521333 8.29250892 51.51641951 10.48513851 49.38964844 13.71191406 C45.54502108 16.4303523 42.07235777 16.01649236 37.4765625 15.90820312 C36.57218445 15.90254333 35.6678064 15.89688354 34.73602295 15.89105225 C31.85211897 15.86869061 28.96946489 15.81849498 26.0859375 15.76757812 C24.12892421 15.74751283 22.17189142 15.72926211 20.21484375 15.71289062 C15.42139461 15.66882652 10.62887785 15.59980064 5.8359375 15.51757812 C5.85688477 16.73864258 5.87783203 17.95970703 5.89941406 19.21777344 C5.97183909 23.75004337 6.01774638 28.2822622 6.05566406 32.81494141 C6.07577382 34.77629194 6.10306568 36.73758256 6.13769531 38.69873047 C6.18624171 41.51870507 6.20891236 44.33788677 6.2265625 47.15820312 C6.24720764 48.03438293 6.26785278 48.91056274 6.28912354 49.81329346 C6.29135489 55.87349134 6.29135489 55.87349134 4.03027344 59.07128906 C0.80349788 61.19806014 -1.38913171 61.05685395 -5.1640625 60.51757812 C-7.73018451 58.51236101 -8.99783893 57.31222346 -9.67199707 54.08935547 C-9.67517944 53.18652832 -9.67836182 52.28370117 -9.68164062 51.35351562 C-9.69424927 50.32564941 -9.70685791 49.2977832 -9.71984863 48.23876953 C-9.71175171 47.13452637 -9.70365479 46.0302832 -9.6953125 44.89257812 C-9.6991394 43.75353027 -9.70296631 42.61448242 -9.70690918 41.44091797 C-9.70963024 39.03351965 -9.7022556 36.62609187 -9.68554688 34.21875 C-9.66414175 30.5312313 -9.68534382 26.84566113 -9.7109375 23.15820312 C-9.70829426 20.81965715 -9.70316937 18.48111239 -9.6953125 16.14257812 C-9.70340942 15.03833496 -9.71150635 13.9340918 -9.71984863 12.79638672 C-9.70723999 11.76852051 -9.69463135 10.7406543 -9.68164062 9.68164062 C-9.67845825 8.77881348 -9.67527588 7.87598633 -9.67199707 6.94580078 C-8.5480865 1.57285461 -5.13766212 0.01810973 0 0 Z " fill="#00C0FF" transform="translate(9.1640625,-0.517578125)"/>
<path d="M0 0 C5.42507523 4.49246272 8.23131908 10.28542371 9.3515625 17.15625 C9.82181423 24.1852758 7.13367996 30.30137492 2.61328125 35.63671875 C-2.70772688 40.49122754 -9.51432323 42.69308388 -16.63671875 42.41015625 C-23.70904873 41.18272708 -29.57178806 37.41715188 -33.8828125 31.7421875 C-37.40637027 26.2474086 -37.75692464 20.3524182 -37 14 C-35.20675234 7.3102198 -31.83526638 2.70794931 -26 -1 C-17.11233031 -5.70209378 -8.62588958 -4.8981182 0 0 Z M-19.375 13.625 C-21.48706506 16.71186432 -21.61195145 18.3282913 -21 22 C-19.5 24.5 -19.5 24.5 -17 26 C-13.3282913 26.61195145 -11.71186432 26.48706506 -8.625 24.375 C-6.51293494 21.28813568 -6.38804855 19.6717087 -7 16 C-8.5 13.5 -8.5 13.5 -11 12 C-14.6717087 11.38804855 -16.28813568 11.51293494 -19.375 13.625 Z " fill="#7827FF" transform="translate(142,109)"/>
</svg>
